<svg xmlns="http://www.w3.org/2000/svg" fill="none" viewBox="0 0 120 20"><path fill="none" d="M0 0h120v20H0V0Z"/><path fill="#161C1C" d="M46.6 5.8c-3.4 0-6.1 2.5-6.1 5.6 0 3.1 2.7 5.6 6 5.6 3.4 0 6.1-2.5 6.1-5.6 0-3.2-2.7-5.6-6-5.6Zm2.9 5.6c0 1.7-1.2 2.9-2.9 2.9-1.8 0-3-1.3-3-2.9 0-1.7 1.2-2.9 2.9-2.9 1.8 0 3 1.2 3 2.9Zm18-5.6c-3.1 0-5.5 2.4-5.5 5.6 0 3.2 2.4 5.6 5.8 5.6 1.9 0 3.5-.7 4.6-2v-.1l-1.9-1.5c-.9.8-1.6 1.1-2.6 1.1-1.4 0-2.3-.7-2.7-1.9v-.1h7.7v-.9c0-4.3-2.9-5.8-5.4-5.8Zm-2.3 4.8v-.2c.3-1.3 1.2-2.1 2.5-2.1s2.2.8 2.4 2.1l.1.2h-5Zm22.4-4.8c-3.3 0-6 2.5-6 5.6 0 3.1 2.6 5.6 6 5.6s6.1-2.5 6.1-5.6c0-3.2-2.7-5.6-6.1-5.6Zm3 5.6c0 1.7-1.2 2.9-3 2.9-1.7 0-2.9-1.3-2.9-2.9 0-1.7 1.2-2.9 2.9-2.9s3 1.2 3 2.9Zm7.9-9.1h-3.2v14.5h3.2V2.3Zm5.7 4.4H101v10.1h3.2V6.7Zm7.8-.9c-3.4 0-6.1 2.5-6.1 5.6 0 3.1 2.7 5.6 6.1 5.6 3.3 0 6-2.5 6-5.6 0-3.2-2.6-5.6-6-5.6Zm2.9 5.6c0 1.7-1.2 2.9-2.9 2.9s-3-1.3-3-2.9c0-1.7 1.2-2.9 2.9-2.9 1.8 0 3 1.2 3 2.9Zm-56.5 2.4c-.1-.2-.2-.4-.2-.9V8.8h2.3V6.2h-2.3V3.4h-3v2.8h-1.8v2.6h1.8v4.9c0 2.3.9 3.3 3.1 3.3 1.1 0 2-.2 2.5-.5V14c-1.3.3-2.1.2-2.4-.2ZM78.7 2c-1.1 0-1.8.3-2.5 1-.6.5-.9 1.4-.9 2.6v.6h-1.6v2.6h1.6v8h3.1v-8H81V6.2h-2.6v-.5c0-.6.4-1 1.1-1.1.5 0 1.2 0 1.5.1V2.2c-.6-.1-1.3-.2-2.2-.2h-.1Zm23.9 3.3c.9 0 1.6-.7 1.6-1.6 0-.9-.7-1.7-1.6-1.7-.9 0-1.7.8-1.7 1.7 0 .9.8 1.6 1.7 1.6Zm-68.2.3c-1.2 0-2.2.3-3 1l-.1.1v-.8H28v10.9h3.3V11c0-.8.2-1.4.6-1.8.4-.4 1-.6 1.6-.6.7 0 1.3.2 1.6.5.4.3.5.8.5 1.4v6.4H39v-6.7c0-1.4-.5-2.5-1.3-3.3-.8-.8-2-1.3-3.3-1.3Z"/><path fill="#1ECAD3" d="M20.766 8.24c-.018-.027-.054-.045-.099-.045h-6.403c-.404 0-.57-.193-.404-.572l2.108-4.783c.018-.04.018-.08 0-.108-.018-.031-.053-.045-.098-.045H5.42a.259.259 0 0 0-.216.14l-4.19 9.507c-.018.04-.018.081 0 .113.017.027.053.045.098.045h6.453c.382 0 .553.148.377.531l-2.126 4.82c-.018.04-.018.08 0 .112.018.027.054.045.099.045h10.45c.04 0 .085-.014.125-.04a.221.221 0 0 0 .085-.1l4.191-9.507c.018-.04.018-.081 0-.113Z"/></svg>